<mxfile host="app.diagrams.net" agent="Mozilla/5.0 (Macintosh; Intel Mac OS X 10_15_7) AppleWebKit/537.36 (KHTML, like Gecko) Chrome/129.0.0.0 Safari/537.36" version="24.7.16">
  <diagram name="StrÃ¡nka-1" id="2-6RMfXrdpY1baso_H4l">
    <mxGraphModel dx="1837" dy="1162" grid="0" gridSize="10" guides="1" tooltips="1" connect="1" arrows="1" fold="1" page="1" pageScale="1" pageWidth="1169" pageHeight="827" math="0" shadow="0">
      <root>
        <mxCell id="0" />
        <mxCell id="1" parent="0" />
        <mxCell id="MFEnd-LI3dlz-7qJ9zuL-1" value="" style="endArrow=none;html=1;rounded=0;" edge="1" parent="1">
          <mxGeometry width="50" height="50" relative="1" as="geometry">
            <mxPoint x="586" y="3" as="sourcePoint" />
            <mxPoint x="586" y="821" as="targetPoint" />
          </mxGeometry>
        </mxCell>
        <mxCell id="MFEnd-LI3dlz-7qJ9zuL-3" value="Image" style="text;html=1;align=center;verticalAlign=middle;resizable=0;points=[];autosize=1;strokeColor=none;fillColor=none;fontSize=30;" vertex="1" parent="1">
          <mxGeometry x="257" y="381" width="101" height="48" as="geometry" />
        </mxCell>
        <mxCell id="MFEnd-LI3dlz-7qJ9zuL-4" value="" style="sketch=0;outlineConnect=0;fontColor=#232F3E;gradientColor=none;fillColor=#ED7100;strokeColor=none;dashed=0;verticalLabelPosition=bottom;verticalAlign=top;align=center;html=1;fontSize=12;fontStyle=0;aspect=fixed;pointerEvents=1;shape=mxgraph.aws4.container_registry_image;" vertex="1" parent="1">
          <mxGeometry x="283.5" y="436" width="48" height="48" as="geometry" />
        </mxCell>
        <mxCell id="MFEnd-LI3dlz-7qJ9zuL-5" value="logo" style="text;html=1;align=center;verticalAlign=middle;resizable=0;points=[];autosize=1;strokeColor=none;fillColor=none;fontSize=25;" vertex="1" parent="1">
          <mxGeometry x="46" y="24" width="65" height="42" as="geometry" />
        </mxCell>
        <mxCell id="MFEnd-LI3dlz-7qJ9zuL-6" value="login to twuzzy" style="text;html=1;align=center;verticalAlign=middle;resizable=0;points=[];autosize=1;strokeColor=none;fillColor=none;fontSize=20;" vertex="1" parent="1">
          <mxGeometry x="799" y="297" width="149" height="36" as="geometry" />
        </mxCell>
        <mxCell id="MFEnd-LI3dlz-7qJ9zuL-8" value="github" style="rounded=1;whiteSpace=wrap;html=1;" vertex="1" parent="1">
          <mxGeometry x="813.5" y="351" width="120" height="25" as="geometry" />
        </mxCell>
        <mxCell id="MFEnd-LI3dlz-7qJ9zuL-9" value="discord" style="rounded=1;whiteSpace=wrap;html=1;" vertex="1" parent="1">
          <mxGeometry x="813.5" y="394" width="120" height="26" as="geometry" />
        </mxCell>
        <mxCell id="MFEnd-LI3dlz-7qJ9zuL-10" value="Terms of Service" style="text;html=1;align=center;verticalAlign=middle;resizable=0;points=[];autosize=1;strokeColor=none;fillColor=none;fontSize=5;" vertex="1" parent="1">
          <mxGeometry x="838.5" y="788" width="55" height="18" as="geometry" />
        </mxCell>
        <mxCell id="MFEnd-LI3dlz-7qJ9zuL-11" value="" style="endArrow=none;html=1;rounded=0;fontSize=5;exitX=1.018;exitY=0.642;exitDx=0;exitDy=0;exitPerimeter=0;entryX=0.102;entryY=0.5;entryDx=0;entryDy=0;entryPerimeter=0;" edge="1" parent="1" target="MFEnd-LI3dlz-7qJ9zuL-12">
          <mxGeometry width="50" height="50" relative="1" as="geometry">
            <mxPoint x="889.4999999999999" y="800.7760000000001" as="sourcePoint" />
            <mxPoint x="889.51" y="789.22" as="targetPoint" />
            <Array as="points">
              <mxPoint x="889.51" y="799.22" />
              <mxPoint x="889.51" y="796.22" />
            </Array>
          </mxGeometry>
        </mxCell>
        <mxCell id="MFEnd-LI3dlz-7qJ9zuL-12" value="Privacy Policy" style="text;html=1;align=center;verticalAlign=middle;resizable=0;points=[];autosize=1;strokeColor=none;fillColor=none;fontSize=5;" vertex="1" parent="1">
          <mxGeometry x="884.5" y="788" width="49" height="18" as="geometry" />
        </mxCell>
      </root>
    </mxGraphModel>
  </diagram>
</mxfile>
